# xmcd
#
# Track frame offsets:
#	150
#	42197
#	62612
#	171805
#	194552
#	216732
#	237425
#	250785
#
# Disc length: 3744 seconds
#
# Revision: 0
# Processed by: cddbd v1.5.1PL0 Copyright (c) Steve Scherf et al.
# Submitted via: dBpowerAMP V4.0
#
DISCID=760e9e08
DTITLE=Royal Scottish Orchestra - Gustav Mahler Symphony No. 3
DYEAR=1900
DGENRE=General Classical
TTITLE0=IV Sehr langsam. Misterioso
TTITLE1=V Lustig im Tempo und keck im Ausdruck
TTITLE2=VI Langsam. Ruhevoll. Empfunden
TTITLE3=Kindertotenlieder-I Nun will die Sonn' so hell aufgeh'n
TTITLE4=II Nun seh' ich wohl, warum so dunkle Flammen
TTITLE5=III Wenn dein Mutterlein
TTITLE6=IV Oft denk' ich, sie sind nur ausgegangen!
TTITLE7=V In diesem Wetter, in diesem Braus
EXTD=
EXTT0=
EXTT1=
EXTT2=
EXTT3=
EXTT4=
EXTT5=
EXTT6=
EXTT7=
PLAYORDER=
